<svg xmlns="http://www.w3.org/2000/svg" data-name="Layer 2" viewBox="0 0 680.26 70.85">
    <defs>
        <linearGradient id="a" x1="0" x2="110.53" y1="35.37" y2="35.37"
            gradientUnits="userSpaceOnUse">
            <stop offset="0" stop-color="#041233" />
            <stop offset="1" stop-color="#0464fe" />
        </linearGradient>
    </defs>
    <g data-name="Слой 1">
        <path
            d="M126.35 10.52h26.77v59.35h10.51V10.52h28.25V.98h-65.53v9.54zm206.66-.79c8.73 0 16.31 2.1 21.36 5.91l.88.66 4.73-8.08-.67-.53C352.74 2.51 344.01 0 332.62 0c-18.13 0-31.29 10.76-31.29 25.58v19.19c0 16.08 12.03 26.07 31.39 26.07 11.4 0 19.24-1.9 26.21-6.35l.74-.47-4.11-8.34-.91.56c-5.33 3.25-12.78 4.98-21.54 4.98-13.45 0-21.17-6.14-21.17-16.84v-18.4c0-10.67 10.6-16.25 21.07-16.25ZM446.6 31.69h-45.38V.98H390.7v68.89h10.52V41.13h45.38v28.74h10.62V.98H446.6v30.71zM669.74.98h10.52v68.88h-10.52zM235.49.2l-30.68 69.67h11.68l24.25-56.85 23.98 56.85h11.58L246.02.2h-10.53zm282.32 0-30.68 69.67h11.68l24.26-56.85 23.98 56.85h11.57L528.34.2h-10.53zm81.15 14.47-10.42 6.08v49.12h10.52V38.86h39.66v-9.23h-39.76V14.67zm-10.42-4.15h50.18V.98h-50.18v9.54z"
            style="stroke-width:0;fill:#2986cc" />
        <path
            d="M75.36.2H35.17C15.78.2 0 15.97 0 35.37s15.78 35.17 35.17 35.17h25.01V19.35l-9.82 5.61v34.49H35.18c-13.28 0-24.08-10.8-24.08-24.08s10.8-24.08 24.08-24.08h40.19c13.28 0 24.08 10.8 24.08 24.08s-10.8 24.08-24.08 24.08h-5.36v11.09h5.36c19.4 0 35.18-15.78 35.18-35.17S94.75.2 75.36.2Z"
            style="stroke-width:0;fill:url(#a)" />
    </g>
</svg>